{"asset":{"generator":"3D Builder","version":"2.0"},"scene":0,"scenes":[{"nodes":[0,1,2,3,4,5]}],"nodes":[{"mesh":0,"matrix":[2.3890597820281982,0,0,0,0,-2.8479811930992582E-7,-2.3890595436096191,0,0,0.64869493246078491,8.286851027605735E-8,0,0.12140799313783646,3.2466726196389573E-8,-0.26104897260665894,1]},{"mesh":1,"matrix":[2.3890597820281982,0,0,0,0,-2.8479811930992582E-7,-2.3890595436096191,0,0,0.64869493246078491,8.286851027605735E-8,0,0.17643700540065765,2.6948054454578596E-8,-0.30734294652938843,1]},{"mesh":2,"matrix":[0.8860359787940979,0,0,0,0,-7.0403814333985792E-8,-0.59058994054794312,0,0,2.6152198314666748,-3.1175852654996561E-7,0,-0.0074175000190734863,-6.5924306014153444E-9,-0.049940392374992371,1]},{"mesh":3,"matrix":[0.8860359787940979,0,0,0,0,-7.0403814333985792E-8,-0.59058994054794312,0,0,2.8182897567749023,-3.3596634807508963E-7,0,-0.085434600710868835,-4.450660728849698E-9,-0.038128595799207687,1]},{"mesh":4,"matrix":[0.8860359787940979,0,0,0,0,-7.0403814333985792E-8,-0.59058994054794312,0,0,2.3205697536468506,-2.7663350010698196E-7,0,-0.14046400785446167,-5.0092219261443915E-10,-0.0049957893788814545,1]},{"mesh":5,"matrix":[2.3933200836181641,0,0,0,0,-2.8530598683573771E-7,-2.393319845199585,0,0,2.393319845199585,-2.8530598683573771E-7,0,-0.17573300004005432,0.11675196141004562,-0.1446479856967926,1]}],"meshes":[{"primitives":[{"attributes":{"POSITION":0},"mode":4,"indices":3,"material":0},{"attributes":{"POSITION":1,"COLOR_0":2},"mode":4,"indices":4}]},{"primitives":[{"attributes":{"POSITION":5},"mode":4,"indices":8,"material":0},{"attributes":{"POSITION":6,"COLOR_0":7},"mode":4,"indices":9}]},{"primitives":[{"attributes":{"POSITION":10,"COLOR_0":11},"mode":4,"indices":12}]},{"primitives":[{"attributes":{"POSITION":13,"COLOR_0":14},"mode":4,"indices":15}]},{"primitives":[{"attributes":{"POSITION":16,"COLOR_0":17},"mode":4,"indices":18}]},{"primitives":[{"attributes":{"POSITION":19,"COLOR_0":20},"mode":4,"indices":21}]}],"materials":[{"name":"Orange","pbrMetallicRoughness":{"baseColorFactor":[1,0.21223078668117523,0.018500218167901039,1],"metallicFactor":0,"roughnessFactor":1},"alphaMode":"OPAQUE"}],"accessors":[{"bufferView":0,"byteOffset":0,"count":96,"componentType":5126,"type":"VEC3","min":[-0.10961300134658813,-0.1186470091342926,-9.90071029605133E-8],"max":[-0.058812603354454041,-0.067847400903701782,-5.6616205057480329E-8]},{"bufferView":0,"byteOffset":1152,"count":97,"componentType":5126,"type":"VEC3","min":[-0.10961300134658813,-0.1186470091342926,-9.90071029605133E-8],"max":[-0.058812603354454041,-0.067847400903701782,0.0507999025285244]},{"bufferView":1,"byteOffset":0,"count":97,"componentType":5121,"type":"VEC4","normalized":true},{"bufferView":2,"byteOffset":0,"count":282,"componentType":5125,"type":"SCALAR"},{"bufferView":2,"byteOffset":1128,"count":288,"componentType":5125,"type":"SCALAR"},{"bufferView":3,"byteOffset":0,"count":96,"componentType":5126,"type":"VEC3","min":[-0.10961300134658813,-0.1186470091342926,-9.90071029605133E-8],"max":[-0.058812603354454041,-0.067847400903701782,-5.6616205057480329E-8]},{"bufferView":3,"byteOffset":1152,"count":97,"componentType":5126,"type":"VEC3","min":[-0.10961300134658813,-0.1186470091342926,-9.90071029605133E-8],"max":[-0.058812603354454041,-0.067847400903701782,0.0507999025285244]},{"bufferView":4,"byteOffset":0,"count":97,"componentType":5121,"type":"VEC4","normalized":true},{"bufferView":5,"byteOffset":0,"count":282,"componentType":5125,"type":"SCALAR"},{"bufferView":5,"byteOffset":1128,"count":288,"componentType":5125,"type":"SCALAR"},{"bufferView":6,"byteOffset":0,"count":8,"componentType":5126,"type":"VEC3","min":[0,0.042998004704713821,0],"max":[0.039998002350330353,0.082998007535934448,0.039998002350330353]},{"bufferView":7,"byteOffset":0,"count":8,"componentType":5121,"type":"VEC4","normalized":true},{"bufferView":8,"byteOffset":0,"count":36,"componentType":5125,"type":"SCALAR"},{"bufferView":9,"byteOffset":0,"count":8,"componentType":5126,"type":"VEC3","min":[0,0.042998004704713821,0],"max":[0.039998002350330353,0.082998007535934448,0.039998002350330353]},{"bufferView":10,"byteOffset":0,"count":8,"componentType":5121,"type":"VEC4","normalized":true},{"bufferView":11,"byteOffset":0,"count":36,"componentType":5125,"type":"SCALAR"},{"bufferView":12,"byteOffset":0,"count":8,"componentType":5126,"type":"VEC3","min":[0,0.042998004704713821,0],"max":[0.039998002350330353,0.082998007535934448,0.039998002350330353]},{"bufferView":13,"byteOffset":0,"count":8,"componentType":5121,"type":"VEC4","normalized":true},{"bufferView":14,"byteOffset":0,"count":36,"componentType":5125,"type":"SCALAR"},{"bufferView":15,"byteOffset":0,"count":2562,"componentType":5126,"type":"VEC3","min":[9.1197005531284958E-5,0.00025229901075363159,-0.010000000707805157],"max":[0.040091205388307571,0.040252301841974258,0.030000001192092896]},{"bufferView":16,"byteOffset":0,"count":2562,"componentType":5121,"type":"VEC4","normalized":true},{"bufferView":17,"byteOffset":0,"count":15360,"componentType":5125,"type":"SCALAR"}],"bufferViews":[{"buffer":0,"byteOffset":0,"byteLength":2316,"byteStride":12,"target":34962},{"buffer":0,"byteOffset":2316,"byteLength":388,"byteStride":4,"target":34962},{"buffer":0,"byteOffset":2704,"byteLength":2280,"target":34963},{"buffer":0,"byteOffset":4984,"byteLength":2316,"byteStride":12,"target":34962},{"buffer":0,"byteOffset":7300,"byteLength":388,"byteStride":4,"target":34962},{"buffer":0,"byteOffset":7688,"byteLength":2280,"target":34963},{"buffer":0,"byteOffset":9968,"byteLength":96,"byteStride":12,"target":34962},{"buffer":0,"byteOffset":10064,"byteLength":32,"byteStride":4,"target":34962},{"buffer":0,"byteOffset":10096,"byteLength":144,"target":34963},{"buffer":0,"byteOffset":10240,"byteLength":96,"byteStride":12,"target":34962},{"buffer":0,"byteOffset":10336,"byteLength":32,"byteStride":4,"target":34962},{"buffer":0,"byteOffset":10368,"byteLength":144,"target":34963},{"buffer":0,"byteOffset":10512,"byteLength":96,"byteStride":12,"target":34962},{"buffer":0,"byteOffset":10608,"byteLength":32,"byteStride":4,"target":34962},{"buffer":0,"byteOffset":10640,"byteLength":144,"target":34963},{"buffer":0,"byteOffset":10784,"byteLength":30744,"byteStride":12,"target":34962},{"buffer":0,"byteOffset":41528,"byteLength":10248,"byteStride":4,"target":34962},{"buffer":0,"byteOffset":51776,"byteLength":61440,"target":34963}],"buffers":[{"byteLength":113216,"uri":"rogo.bin"}]}